<?xml version="1.0" encoding="utf-8"?><svg viewBox="0 0 800 800" xmlns="http://www.w3.org/2000/svg" xmlns:xlink="http://www.w3.org/1999/xlink"><style>:root>svg{display:none}:root>svg:target{display:block}</style><svg stroke-width="15" viewBox="0 0 512 512" xml:space="preserve" id="logo" xmlns="http://www.w3.org/2000/svg"><path d="M256.001 0c-46.43 0-91.582 16.381-127.135 46.128a8.813 8.813 0 0 0-1.105 12.415 8.813 8.813 0 0 0 12.416 1.104c19.134-16.009 41.323-27.764 65-34.709-29.107 30.962-49.23 88.01-52.274 155.423-11.611-7.083-24.973-10.873-38.963-10.873-13.444 0-26.306 3.515-37.596 10.079 3.341-32.853 15.501-63.798 35.682-90.396a8.815 8.815 0 0 0-14.044-10.654c-26.311 34.678-40.217 76.076-40.217 119.719 0 1.415.341 2.81.993 4.065l.776 1.493c.369.71.833 1.368 1.38 1.952l154.458 165.317a8.789 8.789 0 0 0 6.441 2.797 8.784 8.784 0 0 0 6.016-2.374 8.814 8.814 0 0 0 .423-12.458L78.836 199.105c9.999-7.771 22.203-11.987 35.105-11.987 15.59 0 30.171 6.136 41.057 17.277a8.811 8.811 0 0 0 12.61 0c10.885-11.141 25.462-17.277 41.044-17.277 14.413 0 27.964 5.26 38.54 14.868v163.057a8.814 8.814 0 0 0 8.814 8.814 8.814 8.814 0 0 0 8.814-8.814V201.994c10.57-9.613 24.121-14.877 38.542-14.877 15.592 0 30.171 6.136 41.057 17.277a8.815 8.815 0 0 0 12.608 0c10.887-11.142 25.46-17.282 41.034-17.285h.014c12.746 0 24.819 4.119 34.756 11.718L283.757 359.041a8.816 8.816 0 0 0 6.451 14.818c2.363 0 4.72-.944 6.455-2.81l155.211-166.81a8.846 8.846 0 0 0 2.361-6.017C454.224 88.923 365.296 0 256.001 0z"><animate attributeName="stroke-dasharray" from="0, 1000" to="1000, 0" dur="5s" repeatCount="indefinite"/><animate attributeName="stroke-dashoffset" from="1000" to="0" dur="5s" repeatCount="indefinite"/></path><path d="M314.419 392.831H197.601a8.814 8.814 0 0 0-8.814 8.814v42.879c0 4.868 3.946 8.814 8.814 8.814s8.814-3.946 8.814-8.814v-23.54l36.16 31.431-36.16 31.43v-9.941c0-4.868-3.946-8.814-8.814-8.814s-8.814 3.946-8.814 8.814v29.282a8.814 8.814 0 0 0 8.814 8.814H314.42a8.813 8.813 0 0 0 8.814-8.814V401.645a8.815 8.815 0 0 0-8.815-8.814z"><animate attributeName="stroke-dasharray" from="0, 1000" to="1000, 0" dur="5s" repeatCount="indefinite"/><animate attributeName="stroke-dashoffset" from="1000" to="0" dur="5s" repeatCount="indefinite"/></path></svg></svg>